<mxfile host="Electron" agent="Mozilla/5.0 (X11; Linux x86_64) AppleWebKit/537.36 (KHTML, like Gecko) draw.io/25.0.1 Chrome/128.0.6613.186 Electron/32.2.6 Safari/537.36" version="25.0.1">
  <diagram name="Page-1" id="LQy0KR4nQ94TkVr_qtjv">
    <mxGraphModel dx="993" dy="635" grid="1" gridSize="10" guides="1" tooltips="1" connect="1" arrows="1" fold="1" page="1" pageScale="1" pageWidth="1100" pageHeight="850" math="0" shadow="0">
      <root>
        <mxCell id="0" />
        <mxCell id="1" parent="0" />
        <mxCell id="j1YeIe9HBLUR4maC8R7j-53" value="" style="rounded=0;whiteSpace=wrap;html=1;fillColor=none;dashed=1;dashPattern=8 8;" parent="1" vertex="1">
          <mxGeometry x="400" y="20" width="330" height="400" as="geometry" />
        </mxCell>
        <mxCell id="j1YeIe9HBLUR4maC8R7j-56" value="" style="rounded=0;whiteSpace=wrap;html=1;fillColor=none;dashed=1;dashPattern=8 8;" parent="1" vertex="1">
          <mxGeometry x="40" y="460" width="310" height="380" as="geometry" />
        </mxCell>
        <mxCell id="j1YeIe9HBLUR4maC8R7j-54" value="" style="rounded=0;whiteSpace=wrap;html=1;fillColor=none;dashed=1;dashPattern=8 8;" parent="1" vertex="1">
          <mxGeometry x="760" y="20" width="310" height="400" as="geometry" />
        </mxCell>
        <mxCell id="j1YeIe9HBLUR4maC8R7j-55" value="" style="rounded=0;whiteSpace=wrap;html=1;fillColor=none;dashed=1;dashPattern=8 8;" parent="1" vertex="1">
          <mxGeometry x="400" y="460" width="330" height="380" as="geometry" />
        </mxCell>
        <mxCell id="j1YeIe9HBLUR4maC8R7j-1" value="List of Flight Modes" style="swimlane;fontStyle=0;childLayout=stackLayout;horizontal=1;startSize=26;fillColor=#60a917;horizontalStack=0;resizeParent=1;resizeParentMax=0;resizeLast=0;collapsible=1;marginBottom=0;html=1;fontColor=#ffffff;strokeColor=#2D7600;" parent="1" vertex="1">
          <mxGeometry x="40" y="40" width="310" height="330" as="geometry" />
        </mxCell>
        <mxCell id="j1YeIe9HBLUR4maC8R7j-2" value="&lt;b&gt;RC Stabilized:&lt;/b&gt;&amp;nbsp;The pilot commands roll, pitch, yaw rate. A sub-mode adds support to rate mode in altitude." style="text;strokeColor=none;fillColor=none;align=left;verticalAlign=top;spacingLeft=4;spacingRight=4;overflow=hidden;rotatable=0;points=[[0,0.5],[1,0.5]];portConstraint=eastwest;whiteSpace=wrap;html=1;" parent="j1YeIe9HBLUR4maC8R7j-1" vertex="1">
          <mxGeometry y="26" width="310" height="54" as="geometry" />
        </mxCell>
        <mxCell id="j1YeIe9HBLUR4maC8R7j-3" value="&lt;b&gt;RC Position:&lt;/b&gt; The pilot commands x, y, z, yaw rates. Sticks release corresponsds to position and heading hold" style="text;strokeColor=none;fillColor=none;align=left;verticalAlign=top;spacingLeft=4;spacingRight=4;overflow=hidden;rotatable=0;points=[[0,0.5],[1,0.5]];portConstraint=eastwest;whiteSpace=wrap;html=1;" parent="j1YeIe9HBLUR4maC8R7j-1" vertex="1">
          <mxGeometry y="80" width="310" height="50" as="geometry" />
        </mxCell>
        <mxCell id="j1YeIe9HBLUR4maC8R7j-4" value="&lt;b&gt;Waypoint Mission:&lt;/b&gt; GPS waypoint mission based on QGC" style="text;strokeColor=none;fillColor=none;align=left;verticalAlign=top;spacingLeft=4;spacingRight=4;overflow=hidden;rotatable=0;points=[[0,0.5],[1,0.5]];portConstraint=eastwest;whiteSpace=wrap;html=1;" parent="j1YeIe9HBLUR4maC8R7j-1" vertex="1">
          <mxGeometry y="130" width="310" height="40" as="geometry" />
        </mxCell>
        <mxCell id="j1YeIe9HBLUR4maC8R7j-5" value="&lt;b&gt;Learning Inner:&lt;/b&gt;&amp;nbsp;Tuning of roll, pitch, and altitude. RC throttle adds to altitude during learning. RC roll and pitch adds to roll and pitch output during learning. Automatically switches to RC Stabilized with altitude rate mode once done." style="text;strokeColor=none;fillColor=none;align=left;verticalAlign=top;spacingLeft=4;spacingRight=4;overflow=hidden;rotatable=0;points=[[0,0.5],[1,0.5]];portConstraint=eastwest;whiteSpace=wrap;html=1;" parent="j1YeIe9HBLUR4maC8R7j-1" vertex="1">
          <mxGeometry y="170" width="310" height="94" as="geometry" />
        </mxCell>
        <mxCell id="j1YeIe9HBLUR4maC8R7j-6" value="&lt;b&gt;Learning Outer:&lt;/b&gt; Tuning of lateral x and y loops. Completely autonomous" style="text;strokeColor=none;fillColor=none;align=left;verticalAlign=top;spacingLeft=4;spacingRight=4;overflow=hidden;rotatable=0;points=[[0,0.5],[1,0.5]];portConstraint=eastwest;whiteSpace=wrap;html=1;" parent="j1YeIe9HBLUR4maC8R7j-1" vertex="1">
          <mxGeometry y="264" width="310" height="40" as="geometry" />
        </mxCell>
        <mxCell id="j1YeIe9HBLUR4maC8R7j-7" value="&lt;b&gt;Learning Full:&lt;/b&gt; FSAC" style="text;strokeColor=none;fillColor=none;align=left;verticalAlign=top;spacingLeft=4;spacingRight=4;overflow=hidden;rotatable=0;points=[[0,0.5],[1,0.5]];portConstraint=eastwest;whiteSpace=wrap;html=1;" parent="j1YeIe9HBLUR4maC8R7j-1" vertex="1">
          <mxGeometry y="304" width="310" height="26" as="geometry" />
        </mxCell>
        <mxCell id="j1YeIe9HBLUR4maC8R7j-8" value="Pre-idling checks, RC Stabilized&amp;nbsp;" style="swimlane;fontStyle=0;childLayout=stackLayout;horizontal=1;startSize=26;fillColor=none;horizontalStack=0;resizeParent=1;resizeParentMax=0;resizeLast=0;collapsible=1;marginBottom=0;html=1;" parent="1" vertex="1">
          <mxGeometry x="415" y="40" width="300" height="78" as="geometry" />
        </mxCell>
        <mxCell id="j1YeIe9HBLUR4maC8R7j-9" value="RC Available" style="text;strokeColor=none;fillColor=none;align=left;verticalAlign=top;spacingLeft=4;spacingRight=4;overflow=hidden;rotatable=0;points=[[0,0.5],[1,0.5]];portConstraint=eastwest;whiteSpace=wrap;html=1;" parent="j1YeIe9HBLUR4maC8R7j-8" vertex="1">
          <mxGeometry y="26" width="300" height="26" as="geometry" />
        </mxCell>
        <mxCell id="j1YeIe9HBLUR4maC8R7j-10" value="Throttle stick in the low position" style="text;strokeColor=none;fillColor=none;align=left;verticalAlign=top;spacingLeft=4;spacingRight=4;overflow=hidden;rotatable=0;points=[[0,0.5],[1,0.5]];portConstraint=eastwest;whiteSpace=wrap;html=1;" parent="j1YeIe9HBLUR4maC8R7j-8" vertex="1">
          <mxGeometry y="52" width="300" height="26" as="geometry" />
        </mxCell>
        <mxCell id="j1YeIe9HBLUR4maC8R7j-15" value="Pre-arming checks, RC Stabilized&amp;nbsp;" style="swimlane;fontStyle=0;childLayout=stackLayout;horizontal=1;startSize=26;fillColor=none;horizontalStack=0;resizeParent=1;resizeParentMax=0;resizeLast=0;collapsible=1;marginBottom=0;html=1;" parent="1" vertex="1">
          <mxGeometry x="415" y="144" width="300" height="78" as="geometry" />
        </mxCell>
        <mxCell id="j1YeIe9HBLUR4maC8R7j-17" value="Idling switch in the idling position" style="text;strokeColor=none;fillColor=none;align=left;verticalAlign=top;spacingLeft=4;spacingRight=4;overflow=hidden;rotatable=0;points=[[0,0.5],[1,0.5]];portConstraint=eastwest;whiteSpace=wrap;html=1;" parent="j1YeIe9HBLUR4maC8R7j-15" vertex="1">
          <mxGeometry y="26" width="300" height="26" as="geometry" />
        </mxCell>
        <mxCell id="j1YeIe9HBLUR4maC8R7j-18" value="Throttle stick in the low position" style="text;strokeColor=none;fillColor=none;align=left;verticalAlign=top;spacingLeft=4;spacingRight=4;overflow=hidden;rotatable=0;points=[[0,0.5],[1,0.5]];portConstraint=eastwest;whiteSpace=wrap;html=1;" parent="j1YeIe9HBLUR4maC8R7j-15" vertex="1">
          <mxGeometry y="52" width="300" height="26" as="geometry" />
        </mxCell>
        <mxCell id="j1YeIe9HBLUR4maC8R7j-19" value="Pre-idling checks, RC Position&amp;nbsp;" style="swimlane;fontStyle=0;childLayout=stackLayout;horizontal=1;startSize=26;fillColor=none;horizontalStack=0;resizeParent=1;resizeParentMax=0;resizeLast=0;collapsible=1;marginBottom=0;html=1;" parent="1" vertex="1">
          <mxGeometry x="780" y="40" width="270" height="104" as="geometry" />
        </mxCell>
        <mxCell id="j1YeIe9HBLUR4maC8R7j-20" value="RC Available" style="text;strokeColor=none;fillColor=none;align=left;verticalAlign=top;spacingLeft=4;spacingRight=4;overflow=hidden;rotatable=0;points=[[0,0.5],[1,0.5]];portConstraint=eastwest;whiteSpace=wrap;html=1;" parent="j1YeIe9HBLUR4maC8R7j-19" vertex="1">
          <mxGeometry y="26" width="270" height="26" as="geometry" />
        </mxCell>
        <mxCell id="j1YeIe9HBLUR4maC8R7j-21" value="All sticks in the middle position" style="text;strokeColor=none;fillColor=none;align=left;verticalAlign=top;spacingLeft=4;spacingRight=4;overflow=hidden;rotatable=0;points=[[0,0.5],[1,0.5]];portConstraint=eastwest;whiteSpace=wrap;html=1;" parent="j1YeIe9HBLUR4maC8R7j-19" vertex="1">
          <mxGeometry y="52" width="270" height="26" as="geometry" />
        </mxCell>
        <mxCell id="j1YeIe9HBLUR4maC8R7j-25" value="Position and yaw measurements are valid*" style="text;strokeColor=none;fillColor=none;align=left;verticalAlign=top;spacingLeft=4;spacingRight=4;overflow=hidden;rotatable=0;points=[[0,0.5],[1,0.5]];portConstraint=eastwest;whiteSpace=wrap;html=1;" parent="j1YeIe9HBLUR4maC8R7j-19" vertex="1">
          <mxGeometry y="78" width="270" height="26" as="geometry" />
        </mxCell>
        <mxCell id="j1YeIe9HBLUR4maC8R7j-22" value="Pre-arming checks, RC Position&amp;nbsp;" style="swimlane;fontStyle=0;childLayout=stackLayout;horizontal=1;startSize=26;fillColor=none;horizontalStack=0;resizeParent=1;resizeParentMax=0;resizeLast=0;collapsible=1;marginBottom=0;html=1;" parent="1" vertex="1">
          <mxGeometry x="780" y="180" width="270" height="104" as="geometry" />
        </mxCell>
        <mxCell id="j1YeIe9HBLUR4maC8R7j-23" value="Idling switch in the idling position" style="text;strokeColor=none;fillColor=none;align=left;verticalAlign=top;spacingLeft=4;spacingRight=4;overflow=hidden;rotatable=0;points=[[0,0.5],[1,0.5]];portConstraint=eastwest;whiteSpace=wrap;html=1;" parent="j1YeIe9HBLUR4maC8R7j-22" vertex="1">
          <mxGeometry y="26" width="270" height="26" as="geometry" />
        </mxCell>
        <mxCell id="j1YeIe9HBLUR4maC8R7j-24" value="All sticks are in the middle position" style="text;strokeColor=none;fillColor=none;align=left;verticalAlign=top;spacingLeft=4;spacingRight=4;overflow=hidden;rotatable=0;points=[[0,0.5],[1,0.5]];portConstraint=eastwest;whiteSpace=wrap;html=1;" parent="j1YeIe9HBLUR4maC8R7j-22" vertex="1">
          <mxGeometry y="52" width="270" height="26" as="geometry" />
        </mxCell>
        <mxCell id="j1YeIe9HBLUR4maC8R7j-26" value="Position and yaw measurements are valid" style="text;strokeColor=none;fillColor=none;align=left;verticalAlign=top;spacingLeft=4;spacingRight=4;overflow=hidden;rotatable=0;points=[[0,0.5],[1,0.5]];portConstraint=eastwest;whiteSpace=wrap;html=1;" parent="j1YeIe9HBLUR4maC8R7j-22" vertex="1">
          <mxGeometry y="78" width="270" height="26" as="geometry" />
        </mxCell>
        <mxCell id="j1YeIe9HBLUR4maC8R7j-27" value="* Conditions for validity:&amp;nbsp;&lt;div&gt;&lt;ol&gt;&lt;li&gt;&lt;span style=&quot;background-color: initial;&quot;&gt;Position drift less than certain threshold&lt;/span&gt;&lt;/li&gt;&lt;li&gt;&lt;span style=&quot;background-color: initial;&quot;&gt;Velocity close to zero.&lt;/span&gt;&lt;/li&gt;&lt;li&gt;&lt;span style=&quot;background-color: initial;&quot;&gt;Yaw close to zero (by convention).&lt;/span&gt;&lt;/li&gt;&lt;/ol&gt;&lt;div&gt;Other conditions are managed by PX4&lt;/div&gt;&lt;/div&gt;" style="text;html=1;align=left;verticalAlign=top;resizable=0;points=[];autosize=1;strokeColor=none;fillColor=none;" parent="1" vertex="1">
          <mxGeometry x="780" y="298" width="270" height="110" as="geometry" />
        </mxCell>
        <mxCell id="j1YeIe9HBLUR4maC8R7j-28" value="Pre-idling checks, Mission&amp;nbsp;" style="swimlane;fontStyle=0;childLayout=stackLayout;horizontal=1;startSize=26;fillColor=none;horizontalStack=0;resizeParent=1;resizeParentMax=0;resizeLast=0;collapsible=1;marginBottom=0;html=1;" parent="1" vertex="1">
          <mxGeometry x="65" y="480" width="270" height="70" as="geometry" />
        </mxCell>
        <mxCell id="j1YeIe9HBLUR4maC8R7j-29" value="Position and yaw measurements are valid (refer RC Position)" style="text;strokeColor=none;fillColor=none;align=left;verticalAlign=top;spacingLeft=4;spacingRight=4;overflow=hidden;rotatable=0;points=[[0,0.5],[1,0.5]];portConstraint=eastwest;whiteSpace=wrap;html=1;" parent="j1YeIe9HBLUR4maC8R7j-28" vertex="1">
          <mxGeometry y="26" width="270" height="44" as="geometry" />
        </mxCell>
        <mxCell id="j1YeIe9HBLUR4maC8R7j-31" value="Pre-arming checks, Mission" style="swimlane;fontStyle=0;childLayout=stackLayout;horizontal=1;startSize=26;fillColor=none;horizontalStack=0;resizeParent=1;resizeParentMax=0;resizeLast=0;collapsible=1;marginBottom=0;html=1;" parent="1" vertex="1">
          <mxGeometry x="65" y="590" width="270" height="70" as="geometry" />
        </mxCell>
        <mxCell id="j1YeIe9HBLUR4maC8R7j-32" value="Position and yaw measurements are valid (refer RC Position)" style="text;strokeColor=none;fillColor=none;align=left;verticalAlign=top;spacingLeft=4;spacingRight=4;overflow=hidden;rotatable=0;points=[[0,0.5],[1,0.5]];portConstraint=eastwest;whiteSpace=wrap;html=1;" parent="j1YeIe9HBLUR4maC8R7j-31" vertex="1">
          <mxGeometry y="26" width="270" height="44" as="geometry" />
        </mxCell>
        <mxCell id="j1YeIe9HBLUR4maC8R7j-42" value="Pre-idling checks, Learning Inner&amp;nbsp;" style="swimlane;fontStyle=0;childLayout=stackLayout;horizontal=1;startSize=26;fillColor=none;horizontalStack=0;resizeParent=1;resizeParentMax=0;resizeLast=0;collapsible=1;marginBottom=0;html=1;" parent="1" vertex="1">
          <mxGeometry x="425" y="480" width="270" height="122" as="geometry" />
        </mxCell>
        <mxCell id="j1YeIe9HBLUR4maC8R7j-43" value="Connection to tuning server is available*" style="text;strokeColor=none;fillColor=none;align=left;verticalAlign=top;spacingLeft=4;spacingRight=4;overflow=hidden;rotatable=0;points=[[0,0.5],[1,0.5]];portConstraint=eastwest;whiteSpace=wrap;html=1;" parent="j1YeIe9HBLUR4maC8R7j-42" vertex="1">
          <mxGeometry y="26" width="270" height="24" as="geometry" />
        </mxCell>
        <mxCell id="j1YeIe9HBLUR4maC8R7j-47" value="RC Available" style="text;strokeColor=none;fillColor=none;align=left;verticalAlign=top;spacingLeft=4;spacingRight=4;overflow=hidden;rotatable=0;points=[[0,0.5],[1,0.5]];portConstraint=eastwest;whiteSpace=wrap;html=1;" parent="j1YeIe9HBLUR4maC8R7j-42" vertex="1">
          <mxGeometry y="50" width="270" height="24" as="geometry" />
        </mxCell>
        <mxCell id="j1YeIe9HBLUR4maC8R7j-48" value="Throttle stick in the low position" style="text;strokeColor=none;fillColor=none;align=left;verticalAlign=top;spacingLeft=4;spacingRight=4;overflow=hidden;rotatable=0;points=[[0,0.5],[1,0.5]];portConstraint=eastwest;whiteSpace=wrap;html=1;" parent="j1YeIe9HBLUR4maC8R7j-42" vertex="1">
          <mxGeometry y="74" width="270" height="24" as="geometry" />
        </mxCell>
        <mxCell id="j1YeIe9HBLUR4maC8R7j-51" value="Position measurements are valid**" style="text;strokeColor=none;fillColor=none;align=left;verticalAlign=top;spacingLeft=4;spacingRight=4;overflow=hidden;rotatable=0;points=[[0,0.5],[1,0.5]];portConstraint=eastwest;whiteSpace=wrap;html=1;" parent="j1YeIe9HBLUR4maC8R7j-42" vertex="1">
          <mxGeometry y="98" width="270" height="24" as="geometry" />
        </mxCell>
        <mxCell id="j1YeIe9HBLUR4maC8R7j-44" value="Pre-arming checks, Learning Inner" style="swimlane;fontStyle=0;childLayout=stackLayout;horizontal=1;startSize=26;fillColor=none;horizontalStack=0;resizeParent=1;resizeParentMax=0;resizeLast=0;collapsible=1;marginBottom=0;html=1;" parent="1" vertex="1">
          <mxGeometry x="425" y="640" width="270" height="98" as="geometry" />
        </mxCell>
        <mxCell id="j1YeIe9HBLUR4maC8R7j-45" value="Idling switch in the idling position" style="text;strokeColor=none;fillColor=none;align=left;verticalAlign=top;spacingLeft=4;spacingRight=4;overflow=hidden;rotatable=0;points=[[0,0.5],[1,0.5]];portConstraint=eastwest;whiteSpace=wrap;html=1;" parent="j1YeIe9HBLUR4maC8R7j-44" vertex="1">
          <mxGeometry y="26" width="270" height="24" as="geometry" />
        </mxCell>
        <mxCell id="j1YeIe9HBLUR4maC8R7j-50" value="Throttle stick in the low position" style="text;strokeColor=none;fillColor=none;align=left;verticalAlign=top;spacingLeft=4;spacingRight=4;overflow=hidden;rotatable=0;points=[[0,0.5],[1,0.5]];portConstraint=eastwest;whiteSpace=wrap;html=1;" parent="j1YeIe9HBLUR4maC8R7j-44" vertex="1">
          <mxGeometry y="50" width="270" height="24" as="geometry" />
        </mxCell>
        <mxCell id="j1YeIe9HBLUR4maC8R7j-52" value="Position measurements are valid**" style="text;strokeColor=none;fillColor=none;align=left;verticalAlign=top;spacingLeft=4;spacingRight=4;overflow=hidden;rotatable=0;points=[[0,0.5],[1,0.5]];portConstraint=eastwest;whiteSpace=wrap;html=1;" parent="j1YeIe9HBLUR4maC8R7j-44" vertex="1">
          <mxGeometry y="74" width="270" height="24" as="geometry" />
        </mxCell>
        <mxCell id="j1YeIe9HBLUR4maC8R7j-46" value="* Inner loops are critical. A fallback mechanism&amp;nbsp;&lt;div&gt;based on tuning rules must be in place.&lt;/div&gt;&lt;div&gt;&lt;br&gt;&lt;/div&gt;&lt;div&gt;** Namely the altitude would be used to enable/disable&lt;/div&gt;&lt;div&gt;the tuning algorithm to avoid false detection when landed&lt;/div&gt;" style="text;html=1;align=left;verticalAlign=top;resizable=0;points=[];autosize=1;strokeColor=none;fillColor=none;" parent="1" vertex="1">
          <mxGeometry x="415" y="740" width="330" height="90" as="geometry" />
        </mxCell>
        <mxCell id="j1YeIe9HBLUR4maC8R7j-57" value="" style="rounded=0;whiteSpace=wrap;html=1;fillColor=none;dashed=1;dashPattern=8 8;" parent="1" vertex="1">
          <mxGeometry x="760" y="460" width="310" height="380" as="geometry" />
        </mxCell>
        <mxCell id="j1YeIe9HBLUR4maC8R7j-58" value="Pre-idling checks, Learning Outer&amp;nbsp;" style="swimlane;fontStyle=0;childLayout=stackLayout;horizontal=1;startSize=26;fillColor=none;horizontalStack=0;resizeParent=1;resizeParentMax=0;resizeLast=0;collapsible=1;marginBottom=0;html=1;" parent="1" vertex="1">
          <mxGeometry x="780" y="550" width="270" height="116" as="geometry" />
        </mxCell>
        <mxCell id="j1YeIe9HBLUR4maC8R7j-59" value="Connection to tuning server is available*" style="text;strokeColor=none;fillColor=none;align=left;verticalAlign=top;spacingLeft=4;spacingRight=4;overflow=hidden;rotatable=0;points=[[0,0.5],[1,0.5]];portConstraint=eastwest;whiteSpace=wrap;html=1;" parent="j1YeIe9HBLUR4maC8R7j-58" vertex="1">
          <mxGeometry y="26" width="270" height="24" as="geometry" />
        </mxCell>
        <mxCell id="j1YeIe9HBLUR4maC8R7j-60" value="RC Available" style="text;strokeColor=none;fillColor=none;align=left;verticalAlign=top;spacingLeft=4;spacingRight=4;overflow=hidden;rotatable=0;points=[[0,0.5],[1,0.5]];portConstraint=eastwest;whiteSpace=wrap;html=1;" parent="j1YeIe9HBLUR4maC8R7j-58" vertex="1">
          <mxGeometry y="50" width="270" height="24" as="geometry" />
        </mxCell>
        <mxCell id="j1YeIe9HBLUR4maC8R7j-62" value="Position and yaw measurements are valid (Refer to RC Position)" style="text;strokeColor=none;fillColor=none;align=left;verticalAlign=top;spacingLeft=4;spacingRight=4;overflow=hidden;rotatable=0;points=[[0,0.5],[1,0.5]];portConstraint=eastwest;whiteSpace=wrap;html=1;" parent="j1YeIe9HBLUR4maC8R7j-58" vertex="1">
          <mxGeometry y="74" width="270" height="42" as="geometry" />
        </mxCell>
        <mxCell id="j1YeIe9HBLUR4maC8R7j-63" value="Pre-arming checks, Learning Outer" style="swimlane;fontStyle=0;childLayout=stackLayout;horizontal=1;startSize=26;fillColor=none;horizontalStack=0;resizeParent=1;resizeParentMax=0;resizeLast=0;collapsible=1;marginBottom=0;html=1;" parent="1" vertex="1">
          <mxGeometry x="780" y="690" width="270" height="86" as="geometry" />
        </mxCell>
        <mxCell id="j1YeIe9HBLUR4maC8R7j-64" value="Idling switch in the idling position" style="text;strokeColor=none;fillColor=none;align=left;verticalAlign=top;spacingLeft=4;spacingRight=4;overflow=hidden;rotatable=0;points=[[0,0.5],[1,0.5]];portConstraint=eastwest;whiteSpace=wrap;html=1;" parent="j1YeIe9HBLUR4maC8R7j-63" vertex="1">
          <mxGeometry y="26" width="270" height="24" as="geometry" />
        </mxCell>
        <mxCell id="j1YeIe9HBLUR4maC8R7j-66" value="Position and yaw measurements are valid (Refer to RC Position)" style="text;strokeColor=none;fillColor=none;align=left;verticalAlign=top;spacingLeft=4;spacingRight=4;overflow=hidden;rotatable=0;points=[[0,0.5],[1,0.5]];portConstraint=eastwest;whiteSpace=wrap;html=1;" parent="j1YeIe9HBLUR4maC8R7j-63" vertex="1">
          <mxGeometry y="50" width="270" height="36" as="geometry" />
        </mxCell>
        <mxCell id="j1YeIe9HBLUR4maC8R7j-67" value="Startup checks, Learning Outer&amp;nbsp;" style="swimlane;fontStyle=0;childLayout=stackLayout;horizontal=1;startSize=26;fillColor=none;horizontalStack=0;resizeParent=1;resizeParentMax=0;resizeLast=0;collapsible=1;marginBottom=0;html=1;" parent="1" vertex="1">
          <mxGeometry x="780" y="480" width="270" height="50" as="geometry" />
        </mxCell>
        <mxCell id="j1YeIe9HBLUR4maC8R7j-68" value="Inner tuning is available" style="text;strokeColor=none;fillColor=none;align=left;verticalAlign=top;spacingLeft=4;spacingRight=4;overflow=hidden;rotatable=0;points=[[0,0.5],[1,0.5]];portConstraint=eastwest;whiteSpace=wrap;html=1;" parent="j1YeIe9HBLUR4maC8R7j-67" vertex="1">
          <mxGeometry y="26" width="270" height="24" as="geometry" />
        </mxCell>
        <mxCell id="j1YeIe9HBLUR4maC8R7j-72" value="&lt;span style=&quot;color: rgb(240, 240, 240); font-family: Helvetica; font-size: 12px; font-style: normal; font-variant-ligatures: normal; font-variant-caps: normal; font-weight: 400; letter-spacing: normal; orphans: 2; text-align: left; text-indent: 0px; text-transform: none; widows: 2; word-spacing: 0px; -webkit-text-stroke-width: 0px; white-space: nowrap; text-decoration-thickness: initial; text-decoration-style: initial; text-decoration-color: initial; float: none; display: inline !important;&quot;&gt;* Fallback mechanism would be to switch back to&lt;br&gt;&lt;/span&gt;&lt;div&gt;&lt;span style=&quot;color: rgb(240, 240, 240); font-family: Helvetica; font-size: 12px; font-style: normal; font-variant-ligatures: normal; font-variant-caps: normal; font-weight: 400; letter-spacing: normal; orphans: 2; text-align: left; text-indent: 0px; text-transform: none; widows: 2; word-spacing: 0px; -webkit-text-stroke-width: 0px; white-space: nowrap; text-decoration-thickness: initial; text-decoration-style: initial; text-decoration-color: initial; float: none; display: inline !important;&quot;&gt;RC Stabilized mode&lt;/span&gt;&lt;/div&gt;" style="text;whiteSpace=wrap;html=1;labelBackgroundColor=none;" parent="1" vertex="1">
          <mxGeometry x="780" y="780" width="280" height="50" as="geometry" />
        </mxCell>
        <mxCell id="j1YeIe9HBLUR4maC8R7j-73" value="" style="rounded=0;whiteSpace=wrap;html=1;fillColor=none;dashed=1;dashPattern=8 8;" parent="1" vertex="1">
          <mxGeometry x="40" y="880" width="405" height="380" as="geometry" />
        </mxCell>
        <mxCell id="j1YeIe9HBLUR4maC8R7j-74" value="Pre-idling checks,&amp;nbsp;&lt;span style=&quot;text-wrap: wrap;&quot;&gt;Learning Full&lt;/span&gt;" style="swimlane;fontStyle=0;childLayout=stackLayout;horizontal=1;startSize=26;fillColor=none;horizontalStack=0;resizeParent=1;resizeParentMax=0;resizeLast=0;collapsible=1;marginBottom=0;html=1;verticalAlign=middle;align=center;" parent="1" vertex="1">
          <mxGeometry x="60" y="900" width="360" height="122" as="geometry" />
        </mxCell>
        <mxCell id="j1YeIe9HBLUR4maC8R7j-75" value="Position and yaw measurements are valid (refer RC Position)" style="text;strokeColor=none;fillColor=none;align=left;verticalAlign=top;spacingLeft=4;spacingRight=4;overflow=hidden;rotatable=0;points=[[0,0.5],[1,0.5]];portConstraint=eastwest;whiteSpace=wrap;html=1;" parent="j1YeIe9HBLUR4maC8R7j-74" vertex="1">
          <mxGeometry y="26" width="360" height="24" as="geometry" />
        </mxCell>
        <mxCell id="j1YeIe9HBLUR4maC8R7j-78" value="Connection to tuning server is available*" style="text;strokeColor=none;fillColor=none;align=left;verticalAlign=top;spacingLeft=4;spacingRight=4;overflow=hidden;rotatable=0;points=[[0,0.5],[1,0.5]];portConstraint=eastwest;whiteSpace=wrap;html=1;" parent="j1YeIe9HBLUR4maC8R7j-74" vertex="1">
          <mxGeometry y="50" width="360" height="24" as="geometry" />
        </mxCell>
        <mxCell id="j1YeIe9HBLUR4maC8R7j-80" value="RC Available" style="text;strokeColor=none;fillColor=none;align=left;verticalAlign=top;spacingLeft=4;spacingRight=4;overflow=hidden;rotatable=0;points=[[0,0.5],[1,0.5]];portConstraint=eastwest;whiteSpace=wrap;html=1;" parent="j1YeIe9HBLUR4maC8R7j-74" vertex="1">
          <mxGeometry y="74" width="360" height="24" as="geometry" />
        </mxCell>
        <mxCell id="j1YeIe9HBLUR4maC8R7j-81" value="Hovering thrust is entered correctly" style="text;strokeColor=none;fillColor=none;align=left;verticalAlign=top;spacingLeft=4;spacingRight=4;overflow=hidden;rotatable=0;points=[[0,0.5],[1,0.5]];portConstraint=eastwest;whiteSpace=wrap;html=1;" parent="j1YeIe9HBLUR4maC8R7j-74" vertex="1">
          <mxGeometry y="98" width="360" height="24" as="geometry" />
        </mxCell>
        <mxCell id="j1YeIe9HBLUR4maC8R7j-76" value="Pre-arming checks,&amp;nbsp;&lt;span style=&quot;text-align: left; text-wrap: wrap;&quot;&gt;Learning Full&lt;/span&gt;" style="swimlane;fontStyle=0;childLayout=stackLayout;horizontal=1;startSize=26;fillColor=none;horizontalStack=0;resizeParent=1;resizeParentMax=0;resizeLast=0;collapsible=1;marginBottom=0;html=1;" parent="1" vertex="1">
          <mxGeometry x="60" y="1050" width="360" height="74" as="geometry" />
        </mxCell>
        <mxCell id="j1YeIe9HBLUR4maC8R7j-77" value="Idling switch is in the idling position" style="text;strokeColor=none;fillColor=none;align=left;verticalAlign=top;spacingLeft=4;spacingRight=4;overflow=hidden;rotatable=0;points=[[0,0.5],[1,0.5]];portConstraint=eastwest;whiteSpace=wrap;html=1;" parent="j1YeIe9HBLUR4maC8R7j-76" vertex="1">
          <mxGeometry y="26" width="360" height="24" as="geometry" />
        </mxCell>
        <mxCell id="j1YeIe9HBLUR4maC8R7j-83" value="Position and yaw measurements are valid (refer RC Position)" style="text;strokeColor=none;fillColor=none;align=left;verticalAlign=top;spacingLeft=4;spacingRight=4;overflow=hidden;rotatable=0;points=[[0,0.5],[1,0.5]];portConstraint=eastwest;whiteSpace=wrap;html=1;" parent="j1YeIe9HBLUR4maC8R7j-76" vertex="1">
          <mxGeometry y="50" width="360" height="24" as="geometry" />
        </mxCell>
        <mxCell id="j1YeIe9HBLUR4maC8R7j-79" value="* Combines the fall-back mechanisms of &quot;Learning Inner&quot;&amp;nbsp;&lt;div&gt;and &quot;Learning Outer&quot;&lt;/div&gt;" style="text;html=1;align=left;verticalAlign=top;resizable=0;points=[];autosize=1;strokeColor=none;fillColor=none;" parent="1" vertex="1">
          <mxGeometry x="60" y="1150" width="330" height="40" as="geometry" />
        </mxCell>
        <mxCell id="j1YeIe9HBLUR4maC8R7j-84" value="Startup checks, Common Set&amp;nbsp;" style="swimlane;fontStyle=0;childLayout=stackLayout;horizontal=1;startSize=26;fillColor=none;horizontalStack=0;resizeParent=1;resizeParentMax=0;resizeLast=0;collapsible=1;marginBottom=0;html=1;" parent="1" vertex="1">
          <mxGeometry x="540" y="880" width="270" height="74" as="geometry" />
        </mxCell>
        <mxCell id="j1YeIe9HBLUR4maC8R7j-85" value="Connection to PX4 is valid" style="text;strokeColor=none;fillColor=none;align=left;verticalAlign=top;spacingLeft=4;spacingRight=4;overflow=hidden;rotatable=0;points=[[0,0.5],[1,0.5]];portConstraint=eastwest;whiteSpace=wrap;html=1;" parent="j1YeIe9HBLUR4maC8R7j-84" vertex="1">
          <mxGeometry y="26" width="270" height="24" as="geometry" />
        </mxCell>
        <mxCell id="j1YeIe9HBLUR4maC8R7j-86" value="PX4 parameters are compatible and valid" style="text;strokeColor=none;fillColor=none;align=left;verticalAlign=top;spacingLeft=4;spacingRight=4;overflow=hidden;rotatable=0;points=[[0,0.5],[1,0.5]];portConstraint=eastwest;whiteSpace=wrap;html=1;" parent="j1YeIe9HBLUR4maC8R7j-84" vertex="1">
          <mxGeometry y="50" width="270" height="24" as="geometry" />
        </mxCell>
        <mxCell id="j1YeIe9HBLUR4maC8R7j-87" value="Startup checks, OptiTrack&amp;nbsp;" style="swimlane;fontStyle=0;childLayout=stackLayout;horizontal=1;startSize=26;fillColor=none;horizontalStack=0;resizeParent=1;resizeParentMax=0;resizeLast=0;collapsible=1;marginBottom=0;html=1;" parent="1" vertex="1">
          <mxGeometry x="540" y="980" width="270" height="50" as="geometry" />
        </mxCell>
        <mxCell id="j1YeIe9HBLUR4maC8R7j-88" value="OptiTrack is streaming" style="text;strokeColor=none;fillColor=none;align=left;verticalAlign=top;spacingLeft=4;spacingRight=4;overflow=hidden;rotatable=0;points=[[0,0.5],[1,0.5]];portConstraint=eastwest;whiteSpace=wrap;html=1;" parent="j1YeIe9HBLUR4maC8R7j-87" vertex="1">
          <mxGeometry y="26" width="270" height="24" as="geometry" />
        </mxCell>
        <mxCell id="guVshhbutOSgESKfzRJR-1" value="In-flight Mode Switches, RC Stabilized&amp;nbsp;" style="swimlane;fontStyle=0;childLayout=stackLayout;horizontal=1;startSize=26;fillColor=none;horizontalStack=0;resizeParent=1;resizeParentMax=0;resizeLast=0;collapsible=1;marginBottom=0;html=1;" parent="1" vertex="1">
          <mxGeometry x="415" y="250" width="300" height="70" as="geometry">
            <mxRectangle x="420" y="250" width="250" height="30" as="alternateBounds" />
          </mxGeometry>
        </mxCell>
        <mxCell id="guVshhbutOSgESKfzRJR-3" value="RC Position,&amp;nbsp;Mission,&amp;nbsp;Learning Outer -&amp;gt;&amp;nbsp;RC Stabilized" style="text;strokeColor=none;fillColor=none;align=left;verticalAlign=top;spacingLeft=4;spacingRight=4;overflow=hidden;rotatable=0;points=[[0,0.5],[1,0.5]];portConstraint=eastwest;whiteSpace=wrap;html=1;" parent="guVshhbutOSgESKfzRJR-1" vertex="1">
          <mxGeometry y="26" width="300" height="44" as="geometry" />
        </mxCell>
        <mxCell id="hrQywTDulMkKXzahHLpu-1" value="Checks: Not Ready -&amp;gt; Ready To Fly&amp;nbsp;" style="swimlane;fontStyle=0;childLayout=stackLayout;horizontal=1;startSize=30;horizontalStack=0;resizeParent=1;resizeParentMax=0;resizeLast=0;collapsible=1;marginBottom=0;whiteSpace=wrap;html=1;" parent="1" vertex="1">
          <mxGeometry x="540" y="1060" width="290" height="180" as="geometry" />
        </mxCell>
        <mxCell id="hrQywTDulMkKXzahHLpu-2" value="PX4 connection" style="text;strokeColor=none;fillColor=none;align=left;verticalAlign=middle;spacingLeft=4;spacingRight=4;overflow=hidden;points=[[0,0.5],[1,0.5]];portConstraint=eastwest;rotatable=0;whiteSpace=wrap;html=1;" parent="hrQywTDulMkKXzahHLpu-1" vertex="1">
          <mxGeometry y="30" width="290" height="30" as="geometry" />
        </mxCell>
        <mxCell id="hrQywTDulMkKXzahHLpu-3" value="PX4 ready" style="text;strokeColor=none;fillColor=none;align=left;verticalAlign=middle;spacingLeft=4;spacingRight=4;overflow=hidden;points=[[0,0.5],[1,0.5]];portConstraint=eastwest;rotatable=0;whiteSpace=wrap;html=1;" parent="hrQywTDulMkKXzahHLpu-1" vertex="1">
          <mxGeometry y="60" width="290" height="30" as="geometry" />
        </mxCell>
        <mxCell id="hrQywTDulMkKXzahHLpu-4" value="OptiTrack valid measurement" style="text;strokeColor=none;fillColor=none;align=left;verticalAlign=middle;spacingLeft=4;spacingRight=4;overflow=hidden;points=[[0,0.5],[1,0.5]];portConstraint=eastwest;rotatable=0;whiteSpace=wrap;html=1;" parent="hrQywTDulMkKXzahHLpu-1" vertex="1">
          <mxGeometry y="90" width="290" height="30" as="geometry" />
        </mxCell>
        <mxCell id="hrQywTDulMkKXzahHLpu-5" value="PX4 valid measurements (low priority)" style="text;strokeColor=none;fillColor=none;align=left;verticalAlign=middle;spacingLeft=4;spacingRight=4;overflow=hidden;points=[[0,0.5],[1,0.5]];portConstraint=eastwest;rotatable=0;whiteSpace=wrap;html=1;" parent="hrQywTDulMkKXzahHLpu-1" vertex="1">
          <mxGeometry y="120" width="290" height="30" as="geometry" />
        </mxCell>
        <mxCell id="hrQywTDulMkKXzahHLpu-6" value="RC Connection ^" style="text;strokeColor=none;fillColor=none;align=left;verticalAlign=middle;spacingLeft=4;spacingRight=4;overflow=hidden;points=[[0,0.5],[1,0.5]];portConstraint=eastwest;rotatable=0;whiteSpace=wrap;html=1;" parent="hrQywTDulMkKXzahHLpu-1" vertex="1">
          <mxGeometry y="150" width="290" height="30" as="geometry" />
        </mxCell>
        <mxCell id="hrQywTDulMkKXzahHLpu-7" value="* Optional&lt;div&gt;^ User override&lt;/div&gt;" style="text;html=1;align=left;verticalAlign=top;whiteSpace=wrap;rounded=0;" parent="1" vertex="1">
          <mxGeometry x="540" y="1250" width="290" height="80" as="geometry" />
        </mxCell>
      </root>
    </mxGraphModel>
  </diagram>
</mxfile>
